<svg xmlns="http://www.w3.org/2000/svg" viewBox="0 0 1200 350" width="1200" height="350" role="img" aria-label="MenuBar Load Runner — a running horse in the macOS menu bar; its animation speed tracks system load, charted in the drop-down menu">
  <defs>
    <linearGradient id="screen" x1="0" y1="0" x2="0" y2="1">
      <stop offset="0" stop-color="#242B39"/>
      <stop offset="1" stop-color="#1C222E"/>
    </linearGradient>
  </defs>

  <!-- paper card -->
  <rect x="1" y="1" width="1198" height="348" rx="22" fill="#E6E4D5"/>
  <rect x="1.5" y="1.5" width="1197" height="347" rx="21.5" fill="none" stroke="#CDC8B5" stroke-width="1.5"/>

  <!-- ===== macOS menu-bar strip (status item = the running horse only) ===== -->
  <rect x="60" y="52" width="1080" height="50" rx="12" fill="url(#screen)"/>

  <!-- left: apple dot + menu words -->
  <circle cx="92" cy="77" r="6" fill="#E7A23C"/>
  <text x="116" y="82" font-family="ui-sans-serif,-apple-system,Helvetica,Arial,sans-serif" font-size="16" font-weight="700" fill="#ECE6D8">Finder</text>
  <text x="188" y="82" font-family="ui-sans-serif,-apple-system,Helvetica,Arial,sans-serif" font-size="16" fill="#9C978A">File&#160;&#160;&#160;Edit&#160;&#160;&#160;View&#160;&#160;&#160;Go</text>

  <!-- right cluster: horse status item (open → highlighted), battery, clock -->
  <rect x="948" y="59" width="60" height="36" rx="8" fill="#E7A23C" fill-opacity="0.16"/>
  <g transform="translate(958,61) scale(0.36)">
    <g transform="translate(0,82) scale(0.1,-0.1)" fill="#F0EDE1">
      <path d="M957 723 c-4 -6 -25 -10 -47 -10 -23 0 -46 -5 -53 -12 -6 -6 -18 -11
-27 -11 -9 0 -27 -11 -40 -25 -13 -14 -31 -25 -39 -25 -9 0 -33 -14 -53 -31
l-37 -30 -128 2 c-171 2 -279 -9 -317 -32 -18 -11 -50 -19 -76 -19 -55 0 -92
-9 -84 -21 3 -5 16 -9 29 -9 13 0 28 -6 32 -13 31 -48 136 -46 185 4 16 16 31
29 34 29 8 0 4 -69 -5 -93 -6 -14 -20 -28 -33 -32 -48 -13 -67 -29 -74 -59 -3
-17 -9 -35 -13 -41 -3 -5 -6 -12 -7 -15 -4 -19 -20 -48 -37 -68 -19 -21 -20
-24 -4 -39 15 -15 17 -15 26 9 5 14 14 29 19 32 5 3 13 20 16 38 10 54 42 98
71 98 28 0 32 -12 10 -30 -10 -8 -15 -31 -15 -70 0 -40 -5 -62 -16 -70 -21
-18 -14 -69 11 -86 19 -13 20 -11 20 69 0 115 6 131 57 152 24 9 60 30 80 46
38 30 100 40 113 19 4 -6 14 -10 23 -9 10 1 26 -2 36 -6 11 -5 50 -9 88 -9 57
-1 68 -4 68 -18 0 -9 5 -20 10 -23 6 -3 10 -49 10 -104 0 -112 10 -135 55
-129 27 4 28 5 10 13 -11 5 -25 16 -32 24 -15 19 -17 117 -3 126 6 3 10 28 10
56 0 47 13 63 34 42 4 -5 11 -8 14 -8 46 -4 95 -43 123 -96 10 -20 26 -39 35
-43 9 -3 14 -12 10 -21 -4 -11 2 -15 19 -15 36 0 31 14 -21 68 -25 26 -52 59
-60 74 -8 15 -27 34 -42 42 -42 22 -49 35 -57 107 -6 60 -5 68 17 94 22 25 32
28 76 27 28 0 62 -8 76 -17 23 -15 25 -15 36 4 9 18 4 27 -43 73 -29 29 -60
64 -68 77 -9 15 -18 20 -22 14z"/>
    </g>
  </g>
  <rect x="1030" y="70" width="30" height="14" rx="3.5" fill="none" stroke="#9C978A" stroke-width="1.5"/>
  <rect x="1032.5" y="72.5" width="19" height="9" rx="1.5" fill="#4FA9A6"/>
  <rect x="1061.5" y="74" width="2.5" height="6" rx="1" fill="#9C978A"/>
  <text x="1116" y="82" text-anchor="end" font-family="ui-monospace,'SF Mono',Menlo,monospace" font-size="15" fill="#ECE6D8">9:41</text>

  <!-- ===== drop-down menu (the live dashboard) — where the trace chart lives ===== -->
  <rect x="742" y="122" width="398" height="196" rx="14" fill="#00000018"/>
  <rect x="740" y="118" width="398" height="196" rx="14" fill="#F0EDE1" stroke="#CDC8B5" stroke-width="1.5"/>
  <text x="764" y="152" font-family="ui-sans-serif,-apple-system,Helvetica,Arial,sans-serif" font-size="15" font-weight="600" fill="#5C5749">CPU&#160;&#183;&#160;last 60s</text>
  <!-- trace bar chart -->
  <line x1="776" y1="237" x2="1096" y2="237" stroke="#CDC8B5" stroke-width="1"/>
  <g>
    <rect x="776.0" y="233.0" width="4" height="3" rx="1" fill="#4FA9A6"/>
    <rect x="784.0" y="232.0" width="4" height="4" rx="1" fill="#4FA9A6"/>
    <rect x="792.0" y="233.0" width="4" height="3" rx="1" fill="#4FA9A6"/>
    <rect x="800.0" y="231.0" width="4" height="5" rx="1" fill="#4FA9A6"/>
    <rect x="808.0" y="232.0" width="4" height="4" rx="1" fill="#4FA9A6"/>
    <rect x="816.0" y="233.0" width="4" height="3" rx="1" fill="#4FA9A6"/>
    <rect x="824.0" y="232.0" width="4" height="4" rx="1" fill="#4FA9A6"/>
    <rect x="832.0" y="230.0" width="4" height="6" rx="1" fill="#4FA9A6"/>
    <rect x="840.0" y="232.0" width="4" height="4" rx="1" fill="#4FA9A6"/>
    <rect x="848.0" y="233.0" width="4" height="3" rx="1" fill="#4FA9A6"/>
    <rect x="856.0" y="231.0" width="4" height="5" rx="1" fill="#4FA9A6"/>
    <rect x="864.0" y="232.0" width="4" height="4" rx="1" fill="#4FA9A6"/>
    <rect x="872.0" y="233.0" width="4" height="3" rx="1" fill="#4FA9A6"/>
    <rect x="880.0" y="232.0" width="4" height="4" rx="1" fill="#4FA9A6"/>
    <rect x="888.0" y="229.0" width="4" height="7" rx="1" fill="#4FA9A6"/>
    <rect x="896.0" y="231.0" width="4" height="5" rx="1" fill="#4FA9A6"/>
    <rect x="904.0" y="232.0" width="4" height="4" rx="1" fill="#4FA9A6"/>
    <rect x="912.0" y="233.0" width="4" height="3" rx="1" fill="#4FA9A6"/>
    <rect x="920.0" y="231.0" width="4" height="5" rx="1" fill="#4FA9A6"/>
    <rect x="928.0" y="232.0" width="4" height="4" rx="1" fill="#4FA9A6"/>
    <rect x="936.0" y="230.0" width="4" height="6" rx="1" fill="#4FA9A6"/>
    <rect x="944.0" y="231.0" width="4" height="5" rx="1" fill="#4FA9A6"/>
    <rect x="952.0" y="228.0" width="4" height="8" rx="1" fill="#E7A23C"/>
    <rect x="960.0" y="230.0" width="4" height="6" rx="1" fill="#4FA9A6"/>
    <rect x="968.0" y="232.0" width="4" height="4" rx="1" fill="#4FA9A6"/>
    <rect x="976.0" y="231.0" width="4" height="5" rx="1" fill="#4FA9A6"/>
    <rect x="984.0" y="229.0" width="4" height="7" rx="1" fill="#4FA9A6"/>
    <rect x="992.0" y="226.0" width="4" height="10" rx="1" fill="#E7A23C"/>
    <rect x="1000.0" y="228.0" width="4" height="8" rx="1" fill="#E7A23C"/>
    <rect x="1008.0" y="230.0" width="4" height="6" rx="1" fill="#4FA9A6"/>
    <rect x="1016.0" y="227.0" width="4" height="9" rx="1" fill="#E7A23C"/>
    <rect x="1024.0" y="224.0" width="4" height="12" rx="1" fill="#E7A23C"/>
    <rect x="1032.0" y="220.0" width="4" height="16" rx="1" fill="#D8532B"/>
    <rect x="1040.0" y="223.0" width="4" height="13" rx="1" fill="#E7A23C"/>
    <rect x="1048.0" y="218.0" width="4" height="18" rx="1" fill="#D8532B"/>
    <rect x="1056.0" y="222.0" width="4" height="14" rx="1" fill="#E7A23C"/>
    <rect x="1064.0" y="225.0" width="4" height="11" rx="1" fill="#E7A23C"/>
    <rect x="1072.0" y="227.0" width="4" height="9" rx="1" fill="#E7A23C"/>
    <rect x="1080.0" y="229.0" width="4" height="7" rx="1" fill="#4FA9A6"/>
    <rect x="1088.0" y="231.0" width="4" height="5" rx="1" fill="#4FA9A6"/>
  </g>
  <line x1="764" y1="258" x2="1116" y2="258" stroke="#E0DBCB" stroke-width="1"/>
  <!-- numeric readouts -->
  <text x="764" y="284" font-family="ui-sans-serif,-apple-system,Helvetica,Arial,sans-serif" font-size="17" fill="#21252C">CPU: <tspan font-weight="600">22%</tspan><tspan fill="#5C5749">&#160;&#160;&#183;&#160;&#160;Speed</tspan> <tspan font-weight="600">0.86&#215;</tspan></text>
  <text x="764" y="306" font-family="ui-monospace,'SF Mono',Menlo,monospace" font-size="13" fill="#5C5749">Load Avg 1.69 / 1.90 / 2.15</text>

  <!-- ===== wordmark + tagline ===== -->
  <text x="62" y="190" font-family="Georgia,'Times New Roman',serif" font-size="50" font-weight="700" fill="#141821">MenuBar Load <tspan fill="#C9812A" font-style="italic">Runner</tspan></text>
  <text x="64" y="232" font-family="ui-sans-serif,-apple-system,Helvetica,Arial,sans-serif" font-size="20" fill="#5C5749">A dog, a horse, a soot sprite — trotting in your</text>
  <text x="64" y="260" font-family="ui-sans-serif,-apple-system,Helvetica,Arial,sans-serif" font-size="20" fill="#5C5749">menu bar, sprinting when the machine is under load.</text>
  <text x="64" y="304" font-family="ui-monospace,'SF Mono',Menlo,monospace" font-size="15" fill="#8A8570" letter-spacing="0.5">cpu&#160;&#183;&#160;memory&#160;&#183;&#160;gpu&#160;&#183;&#160;network&#160;&#183;&#160;disk&#160;&#183;&#160;fan</text>
</svg>
